# Blender v2.76 (sub 0) OBJ File: 'floor.blend'
# www.blender.org
mtllib floor.mtl
o Plane.001
v -3.656968 1.895468 0.434779
v -3.656968 1.013719 0.434779
v -3.656968 1.895468 -0.446969
v -3.656968 1.013719 -0.446969
v -3.656968 1.656996 -0.073562
v -3.656968 1.656996 0.061373
v -3.656968 1.522061 0.196308
v -3.656968 1.387126 0.196308
v -3.656968 1.387126 -0.208497
v -3.656968 1.522061 -0.208497
v -3.656968 1.252191 0.061373
v -3.656968 1.252191 -0.073562
vn 1.000000 0.000000 0.000000
usemtl light
s off
f 12//1 9//1 5//1
f 6//1 1//1 7//1
f 8//1 2//1 11//1
f 6//1 7//1 8//1
f 10//1 3//1 5//1
f 5//1 6//1 8//1
f 8//1 11//1 12//1
f 12//1 4//1 9//1
f 9//1 10//1 5//1
f 5//1 8//1 12//1
o Plane
v -3.664732 0.000000 3.000000
v 2.335268 0.000000 3.000000
v -3.664732 0.000000 -3.000000
v 2.335268 0.000000 -3.000000
vt 4.000000 0.000000
vt 4.000000 4.000000
vt 0.000000 4.000000
vt 0.000100 0.000100
vn 0.000000 1.000000 0.000000
usemtl Material.001
s off
f 14/1/2 16/2/2 15/3/2
f 13/4/2 14/1/2 15/3/2
