# Blender v2.76 (sub 0) OBJ File: 'box3.blend'
# www.blender.org
mtllib box3.mtl
o Cube.001_Cube.004
v -1.000000 -1.000000 0.050000
v -1.000000 1.000000 0.050000
v -1.000000 -1.000000 -0.050000
v -1.000000 1.000000 -0.050000
v -0.500000 -1.000000 0.050000
v -0.500000 1.000000 0.050000
v -0.500000 -1.000000 -0.050000
v -0.500000 1.000000 -0.050000
vn -1.000000 0.000000 0.000000
vn 0.000000 0.000000 -1.000000
vn 1.000000 0.000000 0.000000
vn 0.000000 0.000000 1.000000
vn 0.000000 -1.000000 0.000000
vn 0.000000 1.000000 0.000000
usemtl glass_green
s off
f 2//1 4//1 3//1 1//1
f 4//2 8//2 7//2 3//2
f 8//3 6//3 5//3 7//3
f 6//4 2//4 1//4 5//4
f 1//5 3//5 7//5 5//5
f 6//6 8//6 4//6 2//6
o Cube_Cube.001
v -1.000000 -3.000000 3.000000
v -1.000000 3.000000 3.000000
v -1.000000 -3.000000 -3.000000
v -1.000000 3.000000 -3.000000
v 1.000000 -3.000000 3.000000
v 1.000000 3.000000 3.000000
v 1.000000 -3.000000 -3.000000
v 1.000000 3.000000 -3.000000
vn 1.000000 0.000000 0.000000
vn 0.000000 0.000000 1.000000
vn 0.000000 0.000000 -1.000000
vn 0.000000 1.000000 0.000000
vn 0.000000 -1.000000 0.000000
usemtl box
s off
f 10//7 9//7 11//7 12//7
f 12//8 11//8 15//8 16//8
f 14//9 13//9 9//9 10//9
f 9//10 13//10 15//10 11//10
f 14//11 10//11 12//11 16//11
o Cube.002_Cube.005
v -1.000000 -3.000000 0.050000
v -1.000000 -1.000000 0.050000
v -1.000000 -3.000000 -0.050000
v -1.000000 -1.000000 -0.050000
v -0.500000 -3.000000 0.050000
v -0.500000 -1.000000 0.050000
v -0.500000 -3.000000 -0.050000
v -0.500000 -1.000000 -0.050000
vn -1.000000 0.000000 0.000000
vn 0.000000 0.000000 -1.000000
vn 1.000000 0.000000 0.000000
vn 0.000000 0.000000 1.000000
vn 0.000000 -1.000000 0.000000
vn 0.000000 1.000000 0.000000
usemtl Materialglass_red
s off
f 18//12 20//12 19//12 17//12
f 20//13 24//13 23//13 19//13
f 24//14 22//14 21//14 23//14
f 22//15 18//15 17//15 21//15
f 17//16 19//16 23//16 21//16
f 22//17 24//17 20//17 18//17
o Cube.003_Cube.006
v -1.000000 1.000000 0.050000
v -1.000000 3.000000 0.050000
v -1.000000 1.000000 -0.050000
v -1.000000 3.000000 -0.050000
v -0.500000 1.000000 0.050000
v -0.500000 3.000000 0.050000
v -0.500000 1.000000 -0.050000
v -0.500000 3.000000 -0.050000
vn -1.000000 0.000000 0.000000
vn 0.000000 0.000000 -1.000000
vn 1.000000 0.000000 0.000000
vn 0.000000 0.000000 1.000000
vn 0.000000 -1.000000 0.000000
vn 0.000000 1.000000 0.000000
usemtl glass_blue
s off
f 26//18 28//18 27//18 25//18
f 28//19 32//19 31//19 27//19
f 32//20 30//20 29//20 31//20
f 30//21 26//21 25//21 29//21
f 25//22 27//22 31//22 29//22
f 30//23 32//23 28//23 26//23
